<?xml version="1.0" encoding="utf-8" ?><svg xmlns="http://www.w3.org/2000/svg" xmlns:xlink="http://www.w3.org/1999/xlink" width="207" height="183" viewBox="0 0 207 183"><path fill="#27AADA" d="M102.091 41.6736C105.434 32.9015 114.705 23.4858 123.376 19.8048C145.77 10.2982 171.844 18.3912 182.245 41.2011C194.093 67.1853 177.278 91.6811 161.195 111.231C158.327 114.717 151.087 122.895 147.798 125.45C144.249 128.316 141.788 131.328 138.623 134.13C134.321 137.938 129.553 142.275 125.16 145.904C118.283 151.584 109.571 160.268 101.351 163.405C96.6483 161.011 88.6406 154.827 85.0699 150.639C84.7067 147.144 84.7506 144.697 84.9543 141.184C86.0143 140.141 87.0105 139.234 88.4052 138.669C92.5544 136.989 101.915 137.867 106.776 137.839C110.072 137.821 115.387 137.956 117.801 135.42C121.337 131.706 118.824 122.752 118.945 118.006C119.03 114.715 119.907 111.49 119.8 108.181C119.727 105.945 119.096 101.959 117.038 100.633C114.37 98.9141 91.6806 101.74 87.6594 97.8426C86.4466 96.6672 85.6902 95.0964 85.2854 93.4734C84.0321 88.4487 84.9465 79.2514 84.8763 73.6943C84.8424 71.0173 84.1089 68.5601 82.1385 66.661C81.0894 65.65 79.781 64.9113 78.3722 64.5395C74.6288 63.5518 65.8356 64.1702 61.6097 64.232C58.3347 64.2799 56.7128 64.9542 54.4284 67.309C54.1841 69.4994 53.3997 72.0536 53.4163 74.3285C53.4679 81.443 57.0975 95.8453 48.5601 99.4668C46.8467 100.194 42.8501 101.145 40.9995 101.105C39.3782 101.131 37.2981 101.224 35.7237 101.049C29.4983 96.1855 23.3611 82.9905 20.6644 75.2798C5.64189 32.3278 54.2519 -1.76228 89.7887 25.4795C95.0589 29.5195 99.3242 35.4737 102.091 41.6736Z"/><path fill="#61EBB5" d="M102.091 41.6736C105.434 32.9015 114.705 23.4858 123.376 19.8048C145.77 10.2982 171.844 18.3912 182.245 41.2011C194.093 67.1853 177.278 91.6811 161.195 111.231C158.327 114.717 151.087 122.895 147.798 125.45C147.26 125.034 146.919 124.835 146.634 124.216C147.08 122.665 151.259 117.941 152.52 116.27C163.285 102.001 173.26 85.0101 165.361 66.7621C153.372 39.0671 113.033 39.8429 102.247 68.2613C97.4768 57.9394 88.7869 49.4582 77.6773 47.191C48.94 41.3266 27.7477 69.0018 39.0647 95.4353C39.7765 97.0978 40.4964 99.384 40.9995 101.105C39.3782 101.131 37.2981 101.224 35.7237 101.049C29.4983 96.1855 23.3611 82.9905 20.6644 75.2798C5.64189 32.3278 54.2519 -1.76228 89.7887 25.4795C95.0589 29.5195 99.3242 35.4737 102.091 41.6736Z"/></svg>